# xmcd
#
# Track frame offsets:
#	150
#	10607
#	23205
#	38893
#	52000
#	65442
#	77265
#	90660
#	104419
#	115901
#	130388
#	146643
#	160877
#	173816
#	181525
#
# Disc length: 2584 seconds
#
# Revision: 1
# Processed by: cddbd v1.5.2PL0 Copyright (c) Steve Scherf et al.
# Submitted via: audiograbber 1.83.01
#
DISCID=ba0a160f
DTITLE=The Fabulous Harmonaires - ...Sing From Their Foolish Hearts
DYEAR=2011
DGENRE=R&B
TTITLE0=No Fairy Tales
TTITLE1=Girl I Used to Love
TTITLE2=Aren't We
TTITLE3=Burn for You
TTITLE4=He's not Me
TTITLE5=Lonely Down the Line
TTITLE6=Comin' Back
TTITLE7=Foolish Heart
TTITLE8=Giant Jugs of Love
TTITLE9=Dress Her Up
TTITLE10=Lonely Boy Again
TTITLE11=Just at this Moment
TTITLE12=Love of My Own
TTITLE13=Wanna Tell Ya
TTITLE14=You're the Kind of Girl
EXTD=
EXTT0=
EXTT1=
EXTT2=
EXTT3=
EXTT4=
EXTT5=
EXTT6=
EXTT7=
EXTT8=
EXTT9=
EXTT10=
EXTT11=
EXTT12=
EXTT13=
EXTT14=
PLAYORDER=
